<svg id="svg" xmlns="http://www.w3.org/2000/svg" xmlns:xlink="http://www.w3.org/1999/xlink" width="400" height="400" viewBox="0, 0, 400,400"><g id="svgg"><path id="path0" d="M25.116 21.134 C -72.901 103.610,143.200 389.177,310.796 398.647 L 366.496 401.794 383.217 374.367 C 408.596 332.739,404.682 322.155,350.233 285.180 L 300.467 251.384 273.304 277.711 L 246.142 304.038 218.989 285.400 C 176.807 256.444,147.521 227.681,120.391 188.559 L 95.473 152.629 121.280 131.416 C 153.464 104.961,153.637 106.927,113.982 48.532 C 76.754 -6.288,62.813 -10.586,25.116 21.134 M225.702 46.407 C 214.501 57.608,221.657 63.682,256.348 72.418 C 298.540 83.042,331.513 117.602,339.359 159.424 C 342.559 176.479,349.444 187.755,356.659 187.755 C 387.745 187.755,337.092 83.323,295.953 62.598 C 266.256 47.637,232.298 39.811,225.702 46.407 M220.408 96.130 C 220.408 99.613,236.006 109.715,255.070 118.579 C 281.362 130.803,291.503 141.100,297.067 161.224 C 301.102 175.816,309.774 187.755,316.340 187.755 C 323.872 187.755,326.449 182.989,323.322 174.843 C 320.597 167.741,318.367 157.003,318.367 150.981 C 318.367 130.228,269.403 89.796,244.270 89.796 C 231.146 89.796,220.408 92.646,220.408 96.130 M220.408 138.225 C 220.408 142.413,227.567 148.111,236.317 150.888 C 245.067 153.665,254.498 163.096,257.275 171.846 C 260.053 180.596,265.751 187.755,269.938 187.755 C 283.144 187.755,278.190 158.211,262.623 144.122 C 246.483 129.516,220.408 125.874,220.408 138.225 " stroke="none" fill="#000000" fill-rule="evenodd"></path></g></svg>